<svg xmlns="http://www.w3.org/2000/svg" xmlns:xlink="http://www.w3.org/1999/xlink" width="645.97" height="940.725" viewBox="0 0 645.97 940.725">
  <defs>
    <clipPath id="clip-path">
      <rect x="433" width="645.97" height="940.725" fill="none"/>
    </clipPath>
  </defs>
  <g id="스크롤_그룹_4" data-name="스크롤 그룹 4" transform="translate(-433)" clip-path="url(#clip-path)" style="isolation: isolate">
    <g id="undraw_Tree_swing_646s" transform="translate(0 0.001)">
      <path id="패스_109" data-name="패스 109" d="M771.034,790.065h-2.653V480.573a8.682,8.682,0,0,0-2.936-6.581l1.677-2.193a11.576,11.576,0,0,1,3.912,8.774Z" transform="translate(21.384 37.028)" fill="#3f3d56"/>
      <path id="패스_110" data-name="패스 110" d="M565.922,135.23a26.009,26.009,0,0,1,1.526,5.2C566.7,137.7,566.121,135.852,565.922,135.23Z" transform="translate(-43.786 -102.374)" fill="#3f3d56"/>
      <path id="패스_111" data-name="패스 111" d="M584.149,196.37s0,1.952-1.977,8.994Z" transform="translate(-38.479 -77.051)" fill="#3f3d56"/>
      <path id="패스_112" data-name="패스 112" d="M960.242,525.9c-52.176,28.991-120.432,54.022-140.875,61.277,15.588-4.328,60.959-10.154,131.257,36.6,88.327,58.731,182.77,19.572,182.77,19.572s-20.987,42.892-65.589,45.678S906.9,613.527,867.55,635.9s-57.722-5.6-73.469,50.345-44.588,208.8-11.356,294.575l33.219,85.756H627.058s68.215-193.9,30.605-313.214c-21.054-66.82-50.611-115.214-61.635-139.807-5.532-12.318-6.408-18.653.756-18.342,4.073.184,10.746,2.517,20.656,7.127,0,0-45.477-47.545-60.335-47.545s-84.838-7.453-107.563-32.625c0,0-32.357-24.239-90.078,35.425s-43.726,59.665-95.318,55c-50.783-4.6-90.569-30.858-91.8-31.678,1.473.636,60.786,25.908,97.043,13.039C306.12,580.9,337.6,531.49,369.957,514.718s51.593-39.159,95.318-14.92l-28.814-72.421-7.893-19.841-.013-.028s-9.631-136.1-27.992-145.421-6.991-33.559-41.1-38.225c0,0,41.975-5.6,49.842,25.173s62.1,196.7,62.1,196.7,33.219,70.837,69.953,54.064-14-110.929-14-110.929L464.4,358.1s47.228-1.867,76.082,27.039,30.605,122.115,30.605,122.115,72.58,11.186,90.078,53.145c0,0,11.369-37.292-10.494-59.665-5.466-5.6-11.21-15.33-16.742-26.771a250.234,250.234,0,0,1-21.677-142.437c3.25-23.843,5.253-47.163,1.685-52.664-7.867-12.12-41.1-86.69-43.726-106.276S572.839,112,572.839,112s.876,50.331,11.369,66.184,40.223,94.157,40.223,94.157,0,98.809,24.49,147.288,71.7,102.543,69.091,137.968V578.1s52.468-53.131,48.966-70.851-7.867-59.665-41.1-84.823S670.784,357.163,694.4,299.366c13.28-32.512,19.09-49.977,21.637-59.042L702.265,303.1s-8.742,64.317,15.747,86.69c.066.057.119.113.186.17,24.45,22.4,56.647,63.228,56.647,63.228l-.093-1.8-6.9-132.439,1.512,3.535,10.9,25.484,10.321,24.112s48.966-67.117,106.688-89.49,93.567-100.676,93.567-100.676l48.979-41.026L999.59,192.17s-12.245,60.584-81.322,103.476S804.588,401.908,801.961,441.067s-5.253,73.651-5.253,73.651,129.426-4.667,158.28-65.265,52.482-63.384,52.482-63.384l-16.623,52.2-18.361,44.745s75.207,1.867,114.555,49.412,137.293,61.531,137.293,61.531l-55.082,15.839s-52.482-18.639-102.323-53.131S1022.328,491.412,960.242,525.9Z" transform="translate(-172.342 -111.996)" fill="#3f3d56"/>
      <path id="패스_113" data-name="패스 113" d="M831.462,314.74c-5.532,26.106-12.046,51.321-21.2,70.54-28.854,60.6-158.28,65.265-158.28,65.265s.61-8,1.539-20.633c32.861-2.885,122.687-15.2,146.128-64.43,2.149-4.5,4.139-9.334,6.023-14.425Z" transform="translate(-15.677 -28.024)" opacity="0.1"/>
      <path id="패스_114" data-name="패스 114" d="M652.539,411.338s-32.357-41.026-56.833-63.4c-5.373-4.893-9.14-11.823-11.754-19.629-.212-.622-.411-1.259-.61-1.895.57.594,1.141,1.174,1.751,1.725,21.425,19.587,48.9,53.47,55.413,61.6.915,1.16,1.419,1.8,1.419,1.8l-6.806-130.7,10.9,25.484Z" transform="translate(-38.097 -50.348)" opacity="0.1"/>
      <path id="패스_115" data-name="패스 115" d="M650.356,346.816c-.191,22.952-2.985,36.6-2.985,36.6s48.951-67.09,106.652-89.478c3.41-2.3,6.87-4.564,10.411-6.762C833.519,244.3,845.762,183.7,845.762,183.7l40.227-51.272-48.972,41.017s-35.854,78.306-93.571,100.679C704.1,289.379,668.831,325.414,650.356,346.816Z" transform="translate(-17.183 -103.533)" opacity="0.1"/>
      <path id="패스_116" data-name="패스 116" d="M592.773,474.814v20.509s52.47-53.136,48.972-70.848c-2.675-13.545-5.878-41.261-22.093-64.812,7.309,17.8,9.534,35.158,11.48,45.013,2.508,12.7-23.762,43.616-38.827,60.093A45.274,45.274,0,0,1,592.773,474.814Z" transform="translate(-35.169 -9.417)" opacity="0.1"/>
      <path id="패스_117" data-name="패스 117" d="M539.6,341.567c.416.945.844,1.875,1.3,2.774,13.41,26.548,33.628,54.768,48.754,80.69C577.43,399.361,556.155,370,539.6,341.567Z" transform="translate(-52.383 -16.912)" opacity="0.1"/>
      <path id="패스_118" data-name="패스 118" d="M789.689,484.047c-28.767-19.128-53.356-29.451-73.442-34.68-21.07,8.454-38.411,14.757-47.137,17.852C684.759,462.9,730.1,457.165,800.3,503.846c55.082,36.626,112.542,35.182,147.994,28.908a95.984,95.984,0,0,0,24.163-29.13S878.013,542.777,789.689,484.047Z" transform="translate(-10.082 27.737)" opacity="0.1"/>
      <path id="패스_119" data-name="패스 119" d="M575.771,359.384c-7.052-18.419-8.214-40.336-.112-66.019a214.613,214.613,0,0,1,1.508-27.845l13.77-62.791c-2.539,9.055-8.347,26.524-21.64,59.063C552.469,302.985,558.749,335.173,575.771,359.384Z" transform="translate(-45.917 -74.417)" opacity="0.1"/>
      <path id="패스_120" data-name="패스 120" d="M888.427,423.236c-27.291-32.971-71.819-43.971-96.555-47.618l-7.391,18.009s75.207,1.864,114.559,49.407c21.823,26.365,61.658,42.4,92.822,51.467l33.861-9.74S927.779,470.778,888.427,423.236Z" transform="translate(27.602 -2.808)" opacity="0.1"/>
      <path id="패스_121" data-name="패스 121" d="M476.9,432.907c36.729-16.78-13.992-110.933-13.992-110.933l-1.388-.678c12.645,28.44,30.984,79.835,4.766,91.812-24.533,11.208-47.5-16.676-60.052-36.432l.706,2.163S440.172,449.687,476.9,432.907Z" transform="translate(-95.945 -25.308)" opacity="0.1"/>
      <path id="패스_122" data-name="패스 122" d="M572.215,463.855s11.067-36.365-9.724-58.818c5.1,19.343-.889,39.019-.889,39.019-13.53-32.451-60.02-46.49-80.383-51.185.79,10.8.923,17.848.923,17.848S554.725,421.906,572.215,463.855Z" transform="translate(-71.453 4.337)" opacity="0.1"/>
      <path id="패스_123" data-name="패스 123" d="M583.172,205.362c1.971-7.029,1.971-8.989,1.971-8.989Z" transform="translate(-38.152 -77.05)" opacity="0.1"/>
      <path id="패스_124" data-name="패스 124" d="M280.478,510.748c.176-.061.355-.116.531-.178,36.729-13.051,68.211-62.458,100.567-79.238s51.6-39.153,95.32-14.915c0,0-7.65-33.378-22.473-55.307a227.1,227.1,0,0,1,11.86,35.508c-43.725-24.237-62.964-1.864-95.32,14.915S307.124,477.72,270.4,490.771s-97.069-13.051-97.069-13.051,40.227,27.034,91.822,31.7C271.051,509.949,276.087,510.419,280.478,510.748Z" transform="translate(-172.021 -8.818)" opacity="0.1"/>
      <path id="패스_125" data-name="패스 125" d="M381.462,377.617s-1.433.028-4.033.071l-7.893-19.841c.862-.014,1.313-.028,1.313-.028s-6.076-85.841-17.777-125.848c.146.071.265.156.4.226C371.831,241.516,381.462,377.617,381.462,377.617Z" transform="translate(-113.31 -62.306)" opacity="0.1"/>
      <path id="패스_126" data-name="패스 126" d="M533.1,897.836c16.023-52.361,54.558-197.153,24.219-293.424-13.1-41.575-25.246-68.087-35.512-85,7.677,16.011,16.071,37.189,24.9,65.2,37.6,119.322-30.608,313.223-30.608,313.223Z" transform="translate(-60.059 56.749)" opacity="0.1"/>
      <path id="패스_127" data-name="패스 127" d="M526.143,480.619a92.337,92.337,0,0,0-33.352-8.584c-5.532-12.318-6.408-18.653.756-18.342,1.99.382,3.993.834,5.983,1.358C513.593,467.5,526.143,480.619,526.143,480.619Z" transform="translate(-69.105 29.525)" opacity="0.1"/>
      <path id="패스_128" data-name="패스 128" d="M338.4,211.727a24.239,24.239,0,0,0,3.6,4.9,27.341,27.341,0,0,0-3.6-4.9Z" transform="translate(-118.103 -70.69)" opacity="0.1"/>
      <path id="패스_129" data-name="패스 129" d="M480.188,332.863a44.407,44.407,0,0,1,3.791,4.357c-3.831-9.817-8.561-18.305-14.4-24.156-28.858-28.9-76.081-27.034-76.081-27.034l59.222,28.935a83.831,83.831,0,0,1,27.472,17.9Z" transform="translate(-100.107 -39.925)" opacity="0.1"/>
      <path id="패스_130" data-name="패스 130" d="M517.161,278.863c3.569,5.5,1.564,28.815-1.694,52.666a250.212,250.212,0,0,0,21.685,142.428,168.811,168.811,0,0,0,9.318,17.051,250.568,250.568,0,0,1-20.39-139.681c3.258-23.85,5.263-47.171,1.694-52.666-7.87-12.119-41.1-86.7-43.725-106.272a144.563,144.563,0,0,1-.548-22.874C476.709,148.969,476.06,112,476.06,112s-5.247,41.017-2.623,60.594S509.291,266.745,517.161,278.863Z" transform="translate(-74.235 -111.997)" opacity="0.1"/>
      <path id="패스_131" data-name="패스 131" d="M568.447,140.432a27.965,27.965,0,0,0-1.587-5.364S567.531,137.08,568.447,140.432Z" transform="translate(-43.48 -102.441)" opacity="0.1"/>
      <path id="패스_132" data-name="패스 132" d="M342.035,211.227c7.707,1.006,16.573,3.526,23.335,9.372-.441-1.59-.826-3.016-1.132-4.214-7.871-30.763-49.846-25.17-49.846-25.17C333.362,193.809,338.261,202.458,342.035,211.227Z" transform="translate(-125.944 -79.35)" opacity="0.1"/>
      <path id="패스_133" data-name="패스 133" d="M959.3,761.561C946.255,782.882,949.829,810,949.829,810s24.719-7.451,37.761-28.771,9.469-48.438,9.469-48.438S972.34,740.241,959.3,761.561Z" transform="translate(81.463 145.128)" fill="#3f3d56"/>
      <path id="패스_134" data-name="패스 134" d="M972.561,769.513c-1.031,25.429-18.739,45.267-18.739,45.267s-16.036-21.392-15.006-46.821,18.739-45.267,18.739-45.267S973.592,744.084,972.561,769.513Z" transform="translate(77.997 140.945)" fill="#4d91c6"/>
      <path id="패스_135" data-name="패스 135" d="M791.088,646.065s15.007-16.783,21.149-13.406-17.66,18.384-17.66,18.384Z" transform="translate(29.76 103.468)" fill="#ffb9b9"/>
      <path id="패스_136" data-name="패스 136" d="M791.088,646.065s15.007-16.783,21.149-13.406-17.66,18.384-17.66,18.384Z" transform="translate(29.76 103.468)" opacity="0.1"/>
      <path id="패스_137" data-name="패스 137" d="M757.636,616.31s-5.516,10.54-4.073,21.9,14.645,47.824,19.133,47.176,37.734-26.763,37.734-26.763l-6.341-9.438L779.8,664.875S776.1,608.773,757.636,616.31Z" transform="translate(17.424 96.594)" fill="#d0cde1"/>
      <path id="패스_138" data-name="패스 138" d="M836.742,640.1l-37.861,22.169a1.709,1.709,0,0,1-1.508.243,1.846,1.846,0,0,1-1.143-1.076l-9.275-20.666a2.645,2.645,0,0,1,1.24-3.1L819.63,620.4a1.762,1.762,0,0,1,2.405.49l15.7,15.77a2.632,2.632,0,0,1,.195,1.947A2.45,2.45,0,0,1,836.742,640.1Z" transform="translate(28.373 98.461)" fill="#2f2e41"/>
      <path id="패스_139" data-name="패스 139" d="M661.274,524.245,625.78,545.872l-9.446-18.147,30.449-17.652Z" transform="translate(201.314 211.266)" fill="#4d91c6"/>
      <path id="패스_140" data-name="패스 140" d="M.543-.017a.469.469,0,0,1,.528.441A.546.546,0,0,1,.514.9.469.469,0,0,1-.014.458.546.546,0,0,1,.543-.017Z" transform="translate(831.792 729.082) rotate(-50.158)" fill="#f2f2f2"/>
      <path id="패스_141" data-name="패스 141" d="M.362-.011A.313.313,0,0,1,.714.282.364.364,0,0,1,.343.6.313.313,0,0,1-.01.305.364.364,0,0,1,.362-.011Z" transform="translate(845.197 747.607) rotate(-50.158)" fill="#f2f2f2"/>
      <path id="패스_142" data-name="패스 142" d="M757.636,616.31s-5.516,10.54-4.073,21.9,14.645,47.824,19.133,47.176,37.734-26.763,37.734-26.763l-6.341-9.438L779.8,664.875S776.1,608.773,757.636,616.31Z" transform="translate(17.424 96.594)" opacity="0.1"/>
      <path id="패스_143" data-name="패스 143" d="M783.44,647.506s16.984-14.484,22.645-10.259-19.814,15.691-19.814,15.691Z" transform="translate(27.262 105.235)" fill="#ffb9b9"/>
      <ellipse id="타원_40" data-name="타원 40" cx="16.418" cy="17.501" rx="16.418" ry="17.501" transform="translate(771.638 659.802)" fill="#ffb9b9"/>
      <path id="패스_144" data-name="패스 144" d="M813.386,677.134s17.55,2.414,16.984,13.88-13.587,59.143-13.587,59.143l-1.132,18.708s1.132,31.382-2.265,30.778-11.323-22.329-11.323-22.329-9.624-6.638-5.1-12.673,7.926-5.431,6.794-12.07-.566-34.4,2.831-42.848,5.376-13.109,5.376-13.109l-11.037-.771Z" transform="translate(31.285 122.075)" fill="#ffb9b9"/>
      <path id="패스_145" data-name="패스 145" d="M813.386,677.134s17.55,2.414,16.984,13.88-13.587,59.143-13.587,59.143l-1.132,18.708s1.132,31.382-2.265,30.778-11.323-22.329-11.323-22.329-9.624-6.638-5.1-12.673,7.926-5.431,6.794-12.07-.566-34.4,2.831-42.848,5.376-13.109,5.376-13.109l-11.037-.771Z" transform="translate(31.285 122.075)" opacity="0.1"/>
      <path id="패스_146" data-name="패스 146" d="M812.825,679.268s16.984,4.224,18.682,16.294,10.19,47.676,10.19,47.676l9.058,22.329s14.153,27.157,7.926,26.554-14.719-13.88-17.55-13.88-11.323-3.621-10.756-6.035,4.529-9.656,4.529-9.656l-13.7-25.434a64.167,64.167,0,0,1-5.941-15.674c-1.407-5.957-3.008-13.254-3.008-15.621,0-4.224-11.323-6.035-11.323-6.035Z" transform="translate(32.977 122.959)" fill="#ffb9b9"/>
      <path id="패스_147" data-name="패스 147" d="M781.785,651.956l7.926,24.14s12.455,3.621,21.513,6.638,26.042-1.207,27.741,6.035-3.4,19.915-8.492,22.933-7.926,6.035-24.344,1.207-55.481-6.035-55.481-6.035a27.165,27.165,0,0,1-12.455,4.224c-7.36.6-9.058,1.207-11.323-.6s1.132-1.81,2.265-6.638,1.7-3.018,6.794-8.449,9.058-21.726,11.889-27.157,4.529-16.294,4.529-16.294Z" transform="translate(8.536 111.647)" fill="#2f2e41"/>
      <path id="패스_148" data-name="패스 148" d="M773.078,604.7a18.046,18.046,0,0,0-6.794,13.88c0,9.052-16.984-9.656-16.984-9.656s9.058-12.07,9.058-15.691S773.078,604.7,773.078,604.7Z" transform="translate(16.111 87.091)" fill="#ffb9b9"/>
      <path id="패스_149" data-name="패스 149" d="M754.453,598.613s10.19,4.224,12.455,10.259,10.757,18.708,10.757,18.708,11.889,13.277,7.926,27.761-7.36,18.1-7.36,20.519-5.661,6.638-10.19,6.035-21.513-3.018-22.645-5.431-7.926-36.813-3.4-49.487a302.09,302.09,0,0,1,12.455-28.365Z" transform="translate(13.222 89.553)" fill="#d0cde1"/>
      <path id="패스_150" data-name="패스 150" d="M780.511,600.768c3.674.93,7.279-1.566,10.29-4.04,1.709-1.4,3.591-3.408,3.067-5.669-.465-2.006-2.681-3.143-3-5.181-.224-1.417.553-2.795.616-4.23a5.985,5.985,0,0,0-3.3-5.125c-1.79-1.027-3.82-1.456-5.659-2.375-2.808-1.4-5.142-3.936-8.141-4.746-4.1-1.108-8.269,1.251-12.481,1.556-2.549.185-5.131-.388-7.653.058a11.456,11.456,0,0,0-8.752,10.993c-.032,1.921.328,4.064-.748,5.587a8.13,8.13,0,0,1-1.441,1.391c-3.746,3.229-5.447,8.624-5.64,13.822-.1,2.558.407,5.6,2.536,6.684a8.866,8.866,0,0,0,3.549.526,3.627,3.627,0,0,1,3.134,1.595c.97,1.824-.483,4.517.785,6.109.953,1.2,2.812.8,3.924-.22s1.807-2.484,2.862-3.573c2.052-2.119,5.1-2.5,7.909-2.825a3.848,3.848,0,0,0,2.32-.811,3.928,3.928,0,0,0,.951-2.079,13.722,13.722,0,0,0,.014-5.46,3.226,3.226,0,0,1-.065-1.729,2.407,2.407,0,0,1,.83-.991c1.743-1.4,4.8-3.429,7.063-3.044C776,597.415,777.974,600.127,780.511,600.768Z" transform="translate(12.308 77.332)" fill="#2f2e41"/>
      <path id="패스_151" data-name="패스 151" d="M754.387,614.062s-6.794,9.656-6.794,21.122,8.492,49.487,13.021,49.487,40.762-21.122,40.762-21.122l-5.1-10.26-26.042,12.07S773.636,609.234,754.387,614.062Z" transform="translate(15.553 95.83)" fill="#d0cde1"/>
      <rect id="사각형_67" data-name="사각형 67" width="130.01" height="26.87" transform="translate(716.8 818.823)" fill="#4d91c6"/>
      <path id="패스_152" data-name="패스 152" d="M764.271,810.822c-5.859-.007-10.606-5.068-10.613-11.313V481.317a11.394,11.394,0,0,1,6.056-10.218,10.087,10.087,0,0,1,11.257,1.444l-1.676,2.193a7.565,7.565,0,0,0-8.442-1.082,8.545,8.545,0,0,0-4.542,7.663V799.509a8.244,8.244,0,0,0,7.96,8.485Z" transform="translate(17.534 36.284)" fill="#3f3d56"/>
      <path id="패스_153" data-name="패스 153" d="M1.361-.043c.752-.024,1.3,1.811,1.233,4.1S1.856,8.213,1.1,8.236-.2,6.426-.128,4.14.609-.019,1.361-.043Z" transform="translate(755.729 663.674) rotate(-38.768)" fill="#4d91c6"/>
      <path id="패스_154" data-name="패스 154" d="M663.3,761.561C650.255,782.882,653.829,810,653.829,810s24.719-7.451,37.761-28.771,9.469-48.438,9.469-48.438S676.34,740.241,663.3,761.561Z" transform="translate(-15.22 145.128)" fill="#3f3d56"/>
      <path id="패스_155" data-name="패스 155" d="M676.561,769.513c-1.031,25.429-18.739,45.267-18.739,45.267s-16.037-21.392-15.006-46.821,18.739-45.267,18.739-45.267S677.592,744.084,676.561,769.513Z" transform="translate(-18.686 140.945)" fill="#4d91c6"/>
      <path id="패스_156" data-name="패스 156" d="M499.531,773.244c6.235,24.57,27.592,39.787,27.592,39.787s11.247-24.619,5.012-49.189-27.592-39.787-27.592-39.787S493.3,748.674,499.531,773.244Z" transform="translate(-66.087 141.51)" fill="#3f3d56"/>
      <path id="패스_157" data-name="패스 157" d="M516.5,760.741c17.109,17.754,19.2,45.047,19.2,45.047s-25.65-1.493-42.759-19.247-19.2-45.047-19.2-45.047S499.392,742.987,516.5,760.741Z" transform="translate(-73.895 148.732)" fill="#4d91c6"/>
      <path id="패스_158" data-name="패스 158" d="M471.553,297.844C470.065,323.248,452,342.72,452,342.72S436.355,321,437.842,295.6s19.548-44.876,19.548-44.876S473.04,272.44,471.553,297.844Z" transform="translate(-85.654 -54.538)" fill="#4d91c6"/>
      <path id="패스_159" data-name="패스 159" d="M332.534,173.4c20.2,13.575,27.565,39.808,27.565,39.808s-25.38,4.224-45.579-9.35-27.565-39.808-27.565-39.808S312.336,159.828,332.534,173.4Z" transform="translate(-134.906 -90.694)" fill="#4d91c6"/>
      <path id="패스_160" data-name="패스 160" d="M298.534,392.4c20.2,13.575,27.565,39.808,27.565,39.808s-25.38,4.224-45.579-9.35-27.565-39.808-27.565-39.808S278.336,378.828,298.534,392.4Z" transform="translate(-146.011 0.013)" fill="#4d91c6"/>
      <path id="패스_161" data-name="패스 161" d="M605.314,216.894c-6.091,24.611-27.358,39.969-27.358,39.969s-11.391-24.544-5.3-49.155,27.358-39.969,27.358-39.969S611.4,192.283,605.314,216.894Z" transform="translate(-42.172 -88.909)" fill="#4d91c6"/>
      <path id="패스_162" data-name="패스 162" d="M750.224,230.526c-7.159,24.282-29.074,38.569-29.074,38.569S710.842,244.012,718,219.73s29.074-38.569,29.074-38.569S757.383,206.243,750.224,230.526Z" transform="translate(5.061 -83.35)" fill="#4d91c6"/>
      <path id="패스_163" data-name="패스 163" d="M907.6,421.362c-12.968,21.372-37.661,28.919-37.661,28.919s-3.667-27.1,9.3-48.475S916.9,372.888,916.9,372.888,920.57,399.991,907.6,421.362Z" transform="translate(55.359 -3.939)" fill="#4d91c6"/>
      <path id="패스_164" data-name="패스 164" d="M866,206" transform="translate(54.228 -73.062)" fill="#3f3d56"/>
    </g>
  </g>
</svg>
