<svg xmlns="http://www.w3.org/2000/svg" width="21" height="21" viewBox="0 0 21 21">
  <g id="그룹_164" data-name="그룹 164" transform="translate(-1220 -622)">
    <g id="그룹_162" data-name="그룹 162">
      <g id="그룹_161" data-name="그룹 161">
        <g id="그룹_163" data-name="그룹 163">
          <circle id="타원_10" data-name="타원 10" cx="10.5" cy="10.5" r="10.5" transform="translate(1220 622)" fill="#4d91c6"/>
        </g>
      </g>
    </g>
    <path id="패스_40" data-name="패스 40" d="M20.325,13.27l-.813-1a.163.163,0,0,0-.129-.066h0a.156.156,0,0,0-.129.066L13.62,19.044,11.57,16.6a.159.159,0,0,0-.259,0l-.822.981a.25.25,0,0,0,0,.314l2.586,3.086a.772.772,0,0,0,.54.314.815.815,0,0,0,.536-.3h0l6.174-7.406A.27.27,0,0,0,20.325,13.27Z" transform="translate(1215.098 615.753)" fill="#fff"/>
  </g>
</svg>
