<svg xmlns="http://www.w3.org/2000/svg" width="21" height="21" viewBox="0 0 21 21">
  <g id="Icon_ionic-ios-checkmark-circle-outline" data-name="Icon ionic-ios-checkmark-circle-outline" transform="translate(-3.375 -3.375)">
    <path id="패스_40" data-name="패스 40" d="M20.325,13.27l-.813-1a.163.163,0,0,0-.129-.066h0a.156.156,0,0,0-.129.066L13.62,19.044,11.57,16.6a.159.159,0,0,0-.259,0l-.822.981a.25.25,0,0,0,0,.314l2.586,3.086a.772.772,0,0,0,.54.314.815.815,0,0,0,.536-.3h0l6.174-7.406A.27.27,0,0,0,20.325,13.27Z" transform="translate(-1.527 -2.872)" fill="#707070"/>
    <path id="패스_41" data-name="패스 41" d="M13.875,4.788a9.083,9.083,0,1,1-6.426,2.66,9.026,9.026,0,0,1,6.426-2.66m0-1.413a10.5,10.5,0,1,0,10.5,10.5,10.5,10.5,0,0,0-10.5-10.5Z" fill="#707070"/>
  </g>
</svg>
