<svg xmlns="http://www.w3.org/2000/svg" width="17" height="16" viewBox="0 0 17 16">
  <g id="그룹_160" data-name="그룹 160" transform="translate(-702 -1377)">
    <path id="패스_44" data-name="패스 44" d="M12.794,20.5h6.989a1.492,1.492,0,0,0,1.39-.975l2.32-5.642A1.631,1.631,0,0,0,23.6,13.3V11.692a1.824,1.824,0,0,0-1.536-1.858H17.219l.731-3.4.024-.25a1.224,1.224,0,0,0-.337-.846L16.817,4.5,11.7,9.8a1.625,1.625,0,0,0-.447,1.129v8A1.551,1.551,0,0,0,12.794,20.5Z" transform="translate(695.402 1372.5)" fill="#4d91c6"/>
    <path id="패스_45" data-name="패스 45" d="M3.375,15.75H6.033v9.3H3.375Z" transform="translate(698.625 1367.947)" fill="#4d91c6"/>
  </g>
</svg>
