<svg xmlns="http://www.w3.org/2000/svg" width="36" height="36" viewBox="0 0 36 36">
  <g id="그룹_152" data-name="그룹 152" transform="translate(-1606 -556)">
    <path id="Icon_ionic-md-eye-off" data-name="Icon ionic-md-eye-off" d="M14.253,8.708a5.368,5.368,0,0,1,5.458,5.266,4.944,4.944,0,0,1-.391,1.927l3.187,3.073a12.475,12.475,0,0,0,3.744-5,12.915,12.915,0,0,0-12.008-7.9A13.27,13.27,0,0,0,9.9,6.813l2.357,2.276A5.53,5.53,0,0,1,14.253,8.708ZM3.343,5.839l2.491,2.4.5.484a12.434,12.434,0,0,0-4.087,5.25,12.9,12.9,0,0,0,12,7.9,13.263,13.263,0,0,0,4.778-.885l.461.443,3.2,3.073,1.387-1.339L4.724,4.5Zm6.031,5.818,1.692,1.63a2.905,2.905,0,0,0-.086.682,3.213,3.213,0,0,0,3.272,3.156,3.161,3.161,0,0,0,.707-.083l1.692,1.63a5.532,5.532,0,0,1-2.4.557,5.368,5.368,0,0,1-5.458-5.266A5.087,5.087,0,0,1,9.373,11.656Zm4.7-.818,3.439,3.318.021-.167a3.213,3.213,0,0,0-3.272-3.156Z" transform="translate(1609.75 559.5)" fill="#707070"/>
    <g id="사각형_66" data-name="사각형 66" transform="translate(1606 556)" fill="none" stroke="#fff" stroke-width="1">
      <rect width="36" height="36" stroke="none"/>
      <rect x="0.5" y="0.5" width="35" height="35" fill="none"/>
    </g>
  </g>
</svg>
