<svg xmlns="http://www.w3.org/2000/svg" xmlns:xlink="http://www.w3.org/1999/xlink" width="520" height="292" viewBox="0 0 520 292">
  <defs>
    <clipPath id="clip-path">
      <rect width="130.742" height="95.497" fill="none"/>
    </clipPath>
  </defs>
  <g id="그룹_3" data-name="그룹 3" transform="translate(-200 -394)">
    <path id="Path_133" data-name="Path 133" d="M203.82,558.168a88.517,88.517,0,0,0,16.054,18.923c.142.13.288.253.434.381l13.266-7.883c-.1-.133-.206-.283-.323-.447-6.927-9.643-38.21-73.8-38.4-88.006C194.826,482.313,183.592,526.468,203.82,558.168Z" transform="translate(40.168 76.439)" fill="#fff"/>
    <path id="Path_134" data-name="Path 134" d="M208.628,624.779c.2.092.414.182.625.267l9.953-5.914c-.155-.09-.337-.2-.545-.315-3.407-1.99-13.545-7.971-23.527-14.484-10.725-7-21.276-14.611-23.107-18.547C172.408,586.694,184.217,614.217,208.628,624.779Z" transform="translate(48.854 30.273)" fill="#fff"/>
    <path id="Path_133-2" data-name="Path 133" d="M964.888,609.363a88.522,88.522,0,0,1-4.136,24.469c-.056.184-.118.365-.178.549H945.143c.016-.165.033-.349.049-.549,1.029-11.829-4.849-82.963-11.942-95.274C933.872,539.557,966.085,571.778,964.888,609.363Z" transform="translate(-287.067 51.108)" fill="#fff"/>
    <path id="Path_134-2" data-name="Path 134" d="M978.335,667.821c-.129.184-.263.368-.4.549H966.357c.088-.156.189-.34.307-.549,1.912-3.451,7.573-13.771,12.827-24.469,5.644-11.5,10.827-23.429,10.391-27.748C990.02,616.578,993.927,646.271,978.335,667.821Z" transform="translate(-301.672 17.119)" fill="#fff"/>
    <path id="패스_19" data-name="패스 19" d="M429.264,480.121H250.808a15.982,15.982,0,0,1-15.954-15.973V205.035a15.981,15.981,0,0,1,15.954-15.973H429.264a15.982,15.982,0,0,1,15.954,15.973V464.148A15.982,15.982,0,0,1,429.264,480.121Z" transform="translate(21.138 204.938)" fill="#3f3d56"/>
    <path id="패스_20" data-name="패스 20" d="M438.042,477.978H258.958a4.927,4.927,0,0,1-4.918-4.924V212.2a4.927,4.927,0,0,1,4.918-4.924H438.042a4.927,4.927,0,0,1,4.918,4.924V473.053A4.927,4.927,0,0,1,438.042,477.978Z" transform="translate(12.674 196.903)" fill="#fff"/>
    <circle id="타원_6" data-name="타원 6" cx="1.357" cy="1.357" r="1.357" transform="translate(359.106 397.529)" fill="#fff"/>
    <path id="패스_21" data-name="패스 21" d="M654,709.887H135.328a.665.665,0,0,1,0-1.331H654a.665.665,0,0,1,0,1.331Z" transform="translate(65.338 -23.887)" fill="#fff"/>
    <circle id="타원_7" data-name="타원 7" cx="17.324" cy="17.324" r="17.324" transform="translate(343.817 575.507)" fill="#3f3d56"/>
    <path id="패스_22" data-name="패스 22" d="M414.915,413.442H393.222l-13.1-64.061a24.064,24.064,0,1,1,47.889-.028Z" transform="translate(-42.927 146.021)" fill="#3f3d56"/>
    <path id="패스_23" data-name="패스 23" d="M567.32,330.828h79.286a16.855,16.855,0,0,1,16.442,13.148l40.062,177.7a13.622,13.622,0,0,1-12.618,16.6l-81.506,4.016a18,18,0,0,1-18.594-14.771L567.665,401.885l-4.3-23.764-6.344-35.069a10.377,10.377,0,0,1,10.3-12.224Z" transform="translate(-120.981 142.748)" fill="#3f3d56"/>
    <path id="패스_24" data-name="패스 24" d="M642.346,337.683H651.6a11.648,11.648,0,0,1,11.38,9.165l38.454,176.246a7.217,7.217,0,0,1-6.58,8.74l-81.243,5.325a9.347,9.347,0,0,1-9.81-7.671L570.989,347.321a8.187,8.187,0,0,1,8.057-9.638h8.78a3.864,3.864,0,0,1,3.731,2.859h0a3.411,3.411,0,0,0,3.294,2.524h41.681a5.831,5.831,0,0,0,5.814-5.384Z" transform="translate(-127.158 139.724)" fill="#4d91c6"/>
    <path id="패스_25" data-name="패스 25" d="M765.029,428.7a5.884,5.884,0,0,1,.736.563l26.856-6.846,1.832-6.479,10.139,1.487-2.129,11.785a4.471,4.471,0,0,1-3.931,3.651l-31.358,3.3a5.866,5.866,0,1,1-2.145-7.463Z" transform="translate(-208.848 105.017)" fill="#ffb6b6"/>
    <path id="패스_26" data-name="패스 26" d="M729.705,320.29H708.012l-13.1-64.061A24.064,24.064,0,1,1,742.8,256.2Z" transform="translate(-181.836 186.985)" fill="#fff"/>
    <path id="패스_27" data-name="패스 27" d="M694.416,217.386l-6.918,5.969-9.679,8.344-4.275-21.873-.447-2.275-.352-1.805,9.808-17.084,8.176.469.559.034.011.123.129,1.146L693.1,205.51l.039.363Z" transform="translate(-96.862 310.921)" fill="#3f3d56"/>
    <path id="패스_28" data-name="패스 28" d="M622.624,486.874h-6.852l-3.26-26.427h10.112Z" transform="translate(-70.283 191.224)" fill="#ffb6b6"/>
    <path id="패스_29" data-name="패스 29" d="M750.955,701.673H728.863v-.279a8.6,8.6,0,0,1,8.6-8.6h13.494Z" transform="translate(-196.866 -16.934)" fill="#2f2e41"/>
    <path id="패스_30" data-name="패스 30" d="M750.624,487.874h-6.851l-3.26-26.427h10.112Z" transform="translate(-126.765 190.782)" fill="#ffb6b6"/>
    <path id="패스_31" data-name="패스 31" d="M878.955,702.673H856.863v-.279a8.6,8.6,0,0,1,8.6-8.6h13.494Z" transform="translate(-253.349 -17.375)" fill="#2f2e41"/>
    <path id="패스_32" data-name="패스 32" d="M828.511,543.525l-18.442,2.794-26.83-90.8-28.5,91.36-20.677-2.794L760.891,437.9V429.52l3.633-12.574-.38-3.4-2.643-23.8-1.146-10.322-.074-.667a2.267,2.267,0,0,1,1.784-2.468h0l8.606-1.811h14.066l8.3,2.286.57.156.257.073-.129,1.073-1.945,16.307-.106.894-1.878,15.72-.413,3.448C805.6,426.167,806.157,437.9,806.157,437.9Z" transform="translate(-199.174 123.494)" fill="#fff"/>
    <circle id="타원_9" data-name="타원 9" cx="13.726" cy="13.726" r="13.726" transform="translate(563.109 463.187)" fill="#ffb6b6"/>
    <rect id="사각형_8" data-name="사각형 8" width="27.384" height="3.912" transform="translate(564.099 538.144) rotate(-7.451)" fill="#3f3d56"/>
    <circle id="타원_8" data-name="타원 8" cx="17.324" cy="17.324" r="17.324" transform="translate(519.698 523.379)" fill="#fff"/>
    <g id="스크롤_그룹_2" data-name="스크롤 그룹 2" transform="translate(443.701 477.407)" clip-path="url(#clip-path)" style="isolation: isolate">
      <path id="패스_37" data-name="패스 37" d="M642.346,337.683H651.6a11.648,11.648,0,0,1,11.38,9.165l38.454,176.246a7.217,7.217,0,0,1-6.58,8.74l-81.243,5.325a9.347,9.347,0,0,1-9.81-7.671L570.989,347.321a8.187,8.187,0,0,1,8.057-9.638h8.78a3.864,3.864,0,0,1,3.731,2.859h0a3.411,3.411,0,0,0,3.294,2.524h41.681a5.831,5.831,0,0,0,5.814-5.384Z" transform="translate(-570.859 -337.683)" fill="#fff" opacity="0.4"/>
    </g>
    <path id="패스_33" data-name="패스 33" d="M714.029,438.7a5.88,5.88,0,0,1,.736.563l26.856-6.846,1.832-6.479,10.139,1.487-2.129,11.785a4.471,4.471,0,0,1-3.931,3.651l-31.358,3.3a5.866,5.866,0,1,1-2.146-7.463Z" transform="translate(-186.343 100.612)" fill="#ffb6b6"/>
    <path id="패스_34" data-name="패스 34" d="M783.375,381.027l-4.75-3.633c-1.284-.487-3.044.9-3.353,2.235l-6.706,27.384,13.971,10.059L784.493,414Z" transform="translate(-214.385 122.045)" fill="#3f3d56"/>
    <g id="그룹_2" data-name="그룹 2" transform="translate(565.579 497.751)" opacity="0.2">
      <path id="패스_35" data-name="패스 35" d="M819.631,393.139a37.813,37.813,0,0,1-3.621,1.229c-.391.117-.793.229-1.19.335a36.894,36.894,0,0,1-8.014,1.3,25.23,25.23,0,0,1-3.5-.095,19.7,19.7,0,0,1-3.683-.727l-.123-.034a16.154,16.154,0,0,1-6.678-3.795,13.18,13.18,0,0,1-1.179-1.313A11.869,11.869,0,0,1,789.1,380.8a7.913,7.913,0,0,1,.19-.877,14.045,14.045,0,0,1,.833-2.291c.151-.346.319-.687.5-1.023l6.315-2.135h12.026l8.3,2.286.559.034.011.123.257.073-.129,1.073Z" transform="translate(-788.969 -374.473)"/>
    </g>
    <path id="패스_36" data-name="패스 36" d="M782.973,311.61c-2.567-.315-5.384-.092-7.385,1.547s-2.646,5.045-.752,6.806c1.677,1.559,4.3,1.192,6.546,1.635a8.86,8.86,0,0,1,6.92,8.47c-.033,5.686-5.49,9.992-6.47,15.592a12.162,12.162,0,0,0,3.73,10.545,17.6,17.6,0,0,0,10.479,4.555,32.387,32.387,0,0,0,11.516-1.2,32.024,32.024,0,0,0,10.637-4.688,17.285,17.285,0,0,0,6.767-9.253,11.92,11.92,0,0,0-2.329-10.965c-2.995-3.308-7.977-4.445-10.568-8.079-2.9-4.073-1.829-9.873-4.18-14.288a13.356,13.356,0,0,0-7.708-6.018,34.383,34.383,0,0,0-9.887-1.371,13.1,13.1,0,0,0-5.2.568,4.7,4.7,0,0,0-3.156,3.851A2.292,2.292,0,0,0,782.973,311.61Z" transform="translate(-216.658 153.943)" fill="#2f2e41"/>
  </g>
</svg>
